<svg viewBox="0 0 11 8" fill="none" xmlns="http://www.w3.org/2000/svg">
<path id="Vector" d="M10.5 1.56227C10.5 1.74185 10.4398 1.89451 10.3194 2.02022L5.64838 6.8956L4.77097 7.81143C4.65054 7.93714 4.5043 8 4.33226 8C4.16021 8 4.01398 7.93714 3.89355 7.81143L3.01612 6.8956L0.680642 4.45787C0.560214 4.33221 0.5 4.17959 0.5 4C0.5 3.82041 0.560214 3.66776 0.680642 3.54204L1.55807 2.62622C1.67849 2.50056 1.82473 2.43773 1.99677 2.43773C2.16882 2.43773 2.31506 2.50056 2.43548 2.62622L4.33226 4.61278L8.56452 0.188575C8.68494 0.0628583 8.83118 0 9.00322 0C9.17527 0 9.32151 0.0628583 9.44193 0.188575L10.3194 1.1044C10.4398 1.23006 10.5 1.38268 10.5 1.56227Z" />
</svg>
